<svg width="589" height="589" viewBox="0 0 589 589" fill="none" xmlns="http://www.w3.org/2000/svg">
<path d="M312.5 0C303.663 0 296.5 7.16344 296.5 16V251.073C296.5 265.327 313.734 272.466 323.814 262.386L558.886 27.3137C568.966 17.2343 561.827 0 547.573 0H312.5Z" fill="#101010"/>
<path d="M265.186 262.386C275.266 272.466 292.5 265.327 292.5 251.073V16C292.5 7.16343 285.336 0 276.5 0H41.4272C27.1727 0 20.0341 17.2343 30.1135 27.3137L265.186 262.386Z" fill="#101010"/>
<path d="M280.386 305.814C286.635 299.565 286.635 289.435 280.386 283.186L27.3137 30.1137C17.2342 20.0343 0 27.173 0 41.4275V547.573C0 561.827 17.2343 568.966 27.3137 558.886L280.386 305.814Z" fill="#101010"/>
<path d="M292.5 337.927C292.5 323.673 275.266 316.534 265.186 326.614L30.1135 561.686C20.0341 571.766 27.1727 589 41.4272 589H276.5C285.336 589 292.5 581.837 292.5 573V337.927Z" fill="#101010"/>
<path d="M308.614 283.186C302.365 289.435 302.365 299.565 308.614 305.814L561.686 558.886C571.766 568.966 589 561.827 589 547.573V41.4275C589 27.173 571.766 20.0343 561.686 30.1138L308.614 283.186Z" fill="#101010"/>
<path d="M323.814 326.614C313.734 316.534 296.5 323.673 296.5 337.927V573C296.5 581.837 303.663 589 312.5 589H547.573C561.827 589 568.966 571.766 558.886 561.686L323.814 326.614Z" fill="#101010"/>
</svg>
