<svg width="580" height="580" viewBox="0 0 580 580" fill="none" xmlns="http://www.w3.org/2000/svg">
<path d="M289.7 289.7V0H0L289.7 289.7Z" fill="#101010"/>
<path d="M0.000157779 2.53264e-05L0.000183105 289.7L289.7 289.7L0.000157779 2.53264e-05Z" fill="#101010"/>
<path d="M290 290L290 579.7L579.7 579.7L290 290Z" fill="#101010"/>
<path d="M0.000170442 579.7L289.7 579.7L289.7 290L0.000170442 579.7Z" fill="#101010"/>
<path d="M290 289.7L579.7 289.7L579.7 1.52588e-05L290 289.7Z" fill="#101010"/>
<path d="M289.7 290L-1.26632e-05 290L0 579.7L289.7 290Z" fill="#101010"/>
<path d="M579.7 -1.26632e-05L290 0L290 289.7L579.7 -1.26632e-05Z" fill="#101010"/>
<path d="M579.7 579.7V290H290L579.7 579.7Z" fill="#101010"/>
</svg>
